<?xml version="1.0" standalone="no"?>
<!DOCTYPE svg PUBLIC "-//W3C//DTD SVG 20010904//EN"
 "http://www.w3.org/TR/2001/REC-SVG-20010904/DTD/svg10.dtd">
<svg version="1.0" xmlns="http://www.w3.org/2000/svg"
 width="1024.000000pt" height="1024.000000pt" viewBox="0 0 1024.000000 1024.000000"
 preserveAspectRatio="xMidYMid meet">
<metadata>
Created by potrace 1.14, written by Peter Selinger 2001-2017
</metadata>
<g transform="translate(0.000000,1024.000000) scale(0.100000,-0.100000)"
fill="#000000" stroke="none">
<path d="M2667 10214 c-1 -2 -80 -4 -174 -6 -94 -2 -170 -5 -168 -8 2 -3 -27
-6 -63 -6 -37 -1 -89 -4 -117 -7 -126 -13 -172 -19 -195 -24 -14 -2 -37 -5
-52 -6 -16 0 -28 -4 -28 -8 0 -4 -10 -7 -22 -7 -13 0 -36 -3 -53 -7 -16 -4
-39 -9 -50 -10 -11 -2 -20 -4 -20 -5 0 -1 -11 -4 -60 -14 -5 -1 -16 -5 -22 -9
-7 -5 -13 -5 -13 -1 0 3 -7 1 -15 -6 -8 -6 -19 -9 -25 -5 -5 3 -10 1 -10 -6 0
-7 -3 -10 -6 -7 -7 7 -156 -44 -196 -67 -16 -9 -28 -14 -28 -11 0 7 -209 -102
-258 -135 -24 -16 -45 -29 -48 -29 -5 0 -159 -114 -218 -161 -63 -51 -286
-284 -286 -299 0 -5 -3 -10 -7 -12 -13 -5 -73 -86 -73 -97 0 -5 -4 -11 -8 -13
-12 -5 -77 -110 -74 -120 1 -4 -2 -8 -8 -8 -5 0 -10 -7 -10 -15 0 -8 -4 -15
-10 -15 -5 0 -10 -7 -10 -15 0 -8 -5 -15 -12 -15 -6 0 -9 -2 -6 -5 3 -4 -12
-40 -33 -80 -21 -41 -36 -75 -33 -75 4 0 0 -10 -8 -22 -8 -13 -30 -66 -48
-118 -17 -52 -35 -102 -38 -110 -3 -8 -7 -24 -9 -35 -8 -38 -11 -50 -13 -50
-5 0 -31 -126 -34 -168 -2 -15 -6 -30 -9 -34 -4 -3 -7 -17 -7 -30 0 -14 -5
-33 -10 -44 -7 -11 -7 -19 -1 -19 6 0 6 -12 1 -32 -5 -18 -11 -59 -14 -91 -2
-32 -7 -61 -10 -64 -3 -3 -1 -15 5 -26 7 -11 7 -17 1 -13 -5 3 -10 -8 -10 -27
0 -37 -12 -294 -16 -350 -1 -21 1 -40 5 -43 6 -3 5 -39 -1 -39 -1 0 -3 -21 -4
-47 -1 -27 2 -48 7 -48 5 0 5 -6 -1 -13 -17 -20 -15 -4087 1 -4087 8 0 8 -3 2
-8 -15 -11 -16 -63 -2 -81 9 -12 9 -13 0 -7 -8 4 -13 2 -13 -8 0 -8 5 -18 10
-21 6 -4 7 -12 3 -18 -12 -18 -11 -177 0 -170 6 4 7 1 1 -8 -13 -21 -13 -82 0
-98 8 -11 8 -13 -1 -7 -8 4 -13 1 -13 -8 0 -9 6 -16 13 -16 8 0 8 -3 1 -8 -12
-8 -12 -231 0 -250 4 -7 4 -12 -1 -12 -9 0 -10 -76 -1 -85 3 -3 2 -21 -2 -40
-4 -19 -5 -36 -2 -39 3 -3 6 -43 8 -88 3 -98 20 -357 25 -368 1 -3 1 -9 0 -14
-1 -4 4 -14 10 -22 9 -11 9 -14 0 -14 -9 0 -9 -5 -1 -21 7 -11 10 -23 7 -25
-3 -3 0 -24 5 -47 10 -43 16 -74 22 -117 2 -14 5 -25 6 -25 1 0 3 -11 6 -25 2
-14 7 -32 10 -40 4 -8 8 -26 10 -39 2 -13 6 -31 10 -40 4 -9 9 -23 11 -31 2
-8 5 -22 8 -30 2 -8 4 -15 5 -15 1 0 4 -11 6 -25 3 -14 9 -27 14 -28 6 -2 8
-8 4 -13 -3 -5 -1 -9 3 -9 5 0 9 -8 10 -17 1 -10 10 -36 19 -58 10 -22 18 -42
19 -45 0 -3 22 -48 49 -100 27 -52 54 -105 60 -117 6 -13 14 -23 19 -23 4 0 7
-5 7 -11 0 -11 114 -181 140 -210 8 -9 42 -47 75 -85 70 -79 153 -162 221
-219 27 -22 56 -48 66 -57 10 -10 20 -18 23 -18 2 0 21 -11 41 -25 20 -14 33
-25 28 -25 -5 0 2 -6 16 -13 43 -23 75 -42 80 -48 3 -3 25 -16 50 -30 25 -13
47 -26 50 -29 13 -13 209 -103 265 -121 22 -8 51 -19 64 -26 14 -7 28 -10 33
-7 4 3 8 1 8 -3 0 -5 9 -9 19 -10 11 -1 40 -9 65 -17 26 -9 55 -16 66 -16 10
0 21 -6 23 -12 4 -10 6 -9 6 1 1 10 5 11 13 3 7 -6 16 -11 21 -11 4 0 17 -3
30 -6 12 -2 36 -7 52 -9 17 -3 41 -7 55 -10 25 -5 77 -12 160 -23 25 -3 69 -6
97 -7 29 0 53 -3 53 -6 0 -3 39 -7 88 -10 140 -8 5557 -5 5662 3 156 12 211
17 305 30 17 3 56 8 88 12 31 4 57 10 57 14 0 3 15 7 33 8 32 3 72 10 72 13 0
1 11 3 25 5 14 1 45 10 70 19 25 8 53 16 63 16 9 0 17 5 17 12 0 6 3 9 6 5 5
-5 58 10 104 30 8 3 20 7 26 8 6 2 41 17 78 34 37 17 70 31 73 31 3 0 18 9 34
21 16 11 29 17 29 12 0 -4 4 -3 8 2 4 6 21 17 37 26 44 23 79 43 85 49 3 3 17
11 31 18 14 8 41 27 60 43 19 16 40 29 47 29 6 0 12 4 12 9 0 4 17 20 38 33
20 14 77 63 126 109 127 119 166 162 265 294 72 96 147 215 143 228 -1 4 2 7
7 7 9 0 37 60 33 73 -1 4 2 7 6 7 10 0 21 23 73 149 22 52 39 103 39 113 0 10
4 18 8 18 7 0 18 34 47 150 2 8 4 17 5 20 1 3 3 10 5 15 1 6 3 12 4 15 2 3 4
16 6 30 2 14 10 57 19 96 8 39 17 93 20 120 3 27 6 51 7 54 1 3 3 19 4 35 2
17 4 32 5 35 3 9 12 133 14 197 0 35 5 63 9 63 4 0 3 8 -2 18 -6 11 -6 24 -1
33 13 20 12 5419 0 5419 -6 0 -6 9 -1 23 5 12 5 31 2 42 -4 11 -7 48 -6 82 0
35 -2 63 -5 63 -3 0 -5 17 -6 38 -1 59 -18 209 -29 262 -12 54 -25 126 -30
160 -1 8 -5 22 -8 30 -3 8 -13 40 -21 70 -8 30 -19 69 -24 87 -6 17 -8 34 -4
37 3 3 0 6 -6 6 -7 0 -12 11 -12 25 0 14 -5 25 -10 25 -6 0 -9 3 -9 8 1 4 0
10 -1 15 -1 4 -3 10 -4 15 -4 20 -62 147 -68 150 -5 2 -6 7 -3 12 3 5 -2 16
-11 24 -8 9 -12 16 -8 16 3 0 1 6 -5 14 -6 7 -22 34 -36 60 -14 26 -52 87 -85
137 -64 95 -66 99 -102 140 -13 15 -36 44 -53 65 -38 48 -141 150 -218 217
-33 29 -69 60 -79 70 -10 9 -21 17 -24 17 -5 0 -28 17 -81 60 -7 6 -17 10 -23
10 -5 0 -10 5 -10 10 0 6 -7 10 -15 10 -8 0 -15 4 -15 9 0 9 -26 21 -43 20 -5
0 -16 9 -26 20 -9 11 -29 23 -44 26 -15 4 -27 11 -27 15 0 9 -40 25 -52 22 -5
-1 -8 3 -8 8 0 6 -4 10 -9 10 -5 0 -44 16 -85 35 -42 19 -82 35 -89 35 -7 0
-17 4 -23 10 -5 5 -18 11 -29 13 -11 2 -28 7 -37 11 -9 4 -22 8 -30 10 -7 1
-18 4 -23 8 -6 3 -38 12 -73 19 -34 7 -62 16 -62 19 0 3 -10 7 -22 7 -53 4
-78 8 -78 15 0 3 -8 5 -17 3 -10 -1 -22 0 -28 3 -5 3 -21 7 -35 9 -89 9 -127
17 -139 27 -12 9 -13 8 -7 -3 7 -10 3 -12 -13 -6 -12 3 -41 8 -65 9 -24 2 -47
5 -52 7 -5 2 -37 4 -71 4 -35 0 -63 2 -63 5 0 3 -11 5 -25 5 -14 0 -25 -4 -25
-8 0 -4 -8 -4 -17 1 -10 5 -47 10 -83 10 -36 0 -95 1 -131 2 -36 2 -71 0 -77
-4 -7 -4 -12 -3 -12 2 0 8 -4895 14 -4903 6z"/>
</g>
</svg>
